<?xml version="1.0" encoding="UTF-8" standalone="no"?>
<svg
   xmlns:dc="http://purl.org/dc/elements/1.1/"
   xmlns:cc="http://creativecommons.org/ns#"
   xmlns:rdf="http://www.w3.org/1999/02/22-rdf-syntax-ns#"
   xmlns:svg="http://www.w3.org/2000/svg"
   xmlns="http://www.w3.org/2000/svg"
   xmlns:sodipodi="http://sodipodi.sourceforge.net/DTD/sodipodi-0.dtd"
   xmlns:inkscape="http://www.inkscape.org/namespaces/inkscape"
   width="291.672"
   height="291.744"
   id="svg2816"
   version="1.1"
   inkscape:version="0.47pre1"
   sodipodi:docname="logo_ui_kuning.wmf"
   inkscape:output_extension="org.inkscape.output.svg.inkscape">
  <title
     id="title2846">Logo Universitas Indonesia</title>
  <metadata
     id="metadata2834">
    <rdf:RDF>
      <cc:Work
         rdf:about="">
        <dc:format>image/svg+xml</dc:format>
        <dc:type
           rdf:resource="http://purl.org/dc/dcmitype/StillImage" />
        <dc:title>Logo Universitas Indonesia</dc:title>
      </cc:Work>
    </rdf:RDF>
  </metadata>
  <sodipodi:namedview
     pagecolor="#ffffff"
     bordercolor="#666666"
     borderopacity="1"
     objecttolerance="10"
     gridtolerance="10"
     guidetolerance="10"
     inkscape:pageopacity="0"
     inkscape:pageshadow="2"
     inkscape:window-width="1280"
     inkscape:window-height="744"
     id="namedview2832"
     showgrid="false"
     inkscape:zoom="0.80892841"
     inkscape:cx="170.69859"
     inkscape:cy="107.23153"
     inkscape:window-x="-4"
     inkscape:window-y="-4"
     inkscape:window-maximized="1"
     inkscape:current-layer="svg2816" />
  <defs
     id="defs2818">
    <inkscape:perspective
       sodipodi:type="inkscape:persp3d"
       inkscape:vp_x="0 : 145.87199 : 1"
       inkscape:vp_y="0 : 1000 : 0"
       inkscape:vp_z="291.672 : 145.87199 : 1"
       inkscape:persp3d-origin="145.836 : 97.247996 : 1"
       id="perspective2836" />
    <marker
       id="ArrowEnd"
       viewBox="0 0 10 10"
       refX="0"
       refY="5"
       markerUnits="strokeWidth"
       markerWidth="4"
       markerHeight="3"
       orient="auto">
      <path
         d="M 0 0 L 10 5 L 0 10 z"
         id="path2821" />
    </marker>
    <marker
       id="ArrowStart"
       viewBox="0 0 10 10"
       refX="10"
       refY="5"
       markerUnits="strokeWidth"
       markerWidth="4"
       markerHeight="3"
       orient="auto">
      <path
         d="M 10 0 L 0 5 L 10 10 z"
         id="path2824" />
    </marker>
  </defs>
  <g
     id="g2826">
    <path
       style="stroke:none; fill:#f7d316"
       d="M 146.128 237.057L 157.321 238.06L 163.209 238.479L 169.224 238.899L 175.404 239.19L 181.438 239.336L 187.6 239.482L 193.78 239.336L 199.959 239.044L 202.967 238.771L 205.975 238.479L 209.001 238.06L 212.009 237.622L 214.871 237.057L 217.897 236.492L 220.759 235.78L 223.494 235.069L 226.356 234.212L 229.09 233.227L 231.825 232.224L 233.101 231.659L 234.395 230.948L 236.984 229.817L 238.278 229.106L 239.426 228.395L 237.84 225.988L 236.984 224.839L 236.127 223.709L 235.27 222.706L 234.395 221.721L 233.538 220.864L 232.536 220.007L 230.676 218.457L 228.798 217.181L 227.796 216.615L 226.793 216.032L 224.788 215.047L 222.764 214.19L 220.613 213.625L 218.462 213.059L 216.311 212.622L 214.014 212.348L 211.863 212.056L 209.566 211.911L 207.269 211.911L 202.53 211.911L 197.936 211.911L 193.196 211.911L 188.475 211.911L 186.032 211.783L 184.884 211.637L 183.735 211.637L 181.438 211.218L 178.995 210.926L 176.699 210.361L 174.402 209.795L 172.251 208.938L 171.102 208.519L 169.954 207.935L 169.224 208.227L 168.659 208.519L 168.076 208.938L 167.657 209.358L 167.219 209.923L 166.928 210.634L 166.8 211.218L 166.8 211.911L 166.928 212.348L 166.928 212.622L 167.073 212.913L 167.365 213.205L 167.948 213.771L 168.368 213.916L 168.805 214.19L 169.662 214.609L 170.81 214.901L 173.545 215.612L 176.699 216.032L 180.144 216.615L 183.881 217.035L 187.746 217.6L 189.623 217.892L 191.483 218.311L 195.22 219.022L 196.933 219.442L 198.519 220.007L 200.087 220.59L 201.527 221.302L 202.821 221.995L 204.116 222.706L 204.535 223.143L 205.118 223.709L 205.556 224.128L 205.829 224.566L 206.558 225.696L 206.978 226.827L 207.269 228.103L 207.269 229.526L 207.124 230.091L 206.978 230.529L 206.832 231.094L 206.558 231.513L 206.267 231.951L 205.975 232.37L 205.264 233.082L 204.262 233.647L 203.113 234.212L 201.819 234.65L 200.525 235.069L 198.939 235.215L 197.371 235.489L 195.639 235.634L 193.78 235.634L 191.92 235.634L 190.043 235.634L 188.037 235.489L 186.032 235.361L 182.149 234.923L 178.139 234.212L 174.256 233.501L 172.396 233.082L 170.665 232.662L 167.511 231.805L 164.631 230.802L 163.5 230.383L 162.48 229.963L 161.623 229.526L 160.912 229.106L 159.763 228.249L 158.761 227.392L 156.737 225.55L 154.732 223.563L 152.873 221.575L 149.427 217.308L 145.982 213.205L 142.536 217.308L 140.805 219.442L 138.945 221.575L 137.232 223.563L 135.208 225.55L 133.203 227.392L 132.2 228.249L 131.052 229.106L 130.469 229.526L 129.612 229.963L 128.463 230.383L 127.315 230.948L 126.021 231.386L 124.599 231.805L 123.013 232.224L 121.299 232.662L 117.708 233.501L 113.825 234.212L 109.942 234.923L 105.932 235.361L 101.921 235.634L 100.043 235.634L 98.1841 235.634L 96.3064 235.634L 94.5929 235.489L 93.0069 235.215L 91.585 234.923L 90.1449 234.65L 88.8506 234.212L 87.7021 233.647L 87.2646 233.373L 86.8453 233.082L 86.4078 232.662L 85.9885 232.37L 85.6969 231.951L 85.4052 231.513L 85.1135 231.094L 84.9677 230.529L 84.8401 230.091L 84.6943 229.526L 84.6943 228.103L 84.8401 227.538L 84.9677 226.827L 85.1135 226.262L 85.4052 225.696L 85.6969 225.131L 86.1162 224.566L 86.4078 224.128L 86.9912 223.709L 87.9938 222.706L 89.1423 221.995L 90.4365 221.302L 91.8585 220.59L 93.4444 220.007L 96.8898 219.022L 98.6034 218.603L 100.481 218.311L 102.34 217.892L 104.218 217.6L 108.083 217.035L 111.82 216.615L 115.265 216.032L 118.419 215.612L 119.859 215.193L 121.153 214.901L 122.302 214.609L 123.304 214.19L 124.015 213.771L 124.307 213.479L 124.599 213.205L 124.872 212.913L 125.018 212.622L 125.164 212.348L 125.164 211.911L 125.164 211.218L 125.018 210.634L 124.744 209.923L 124.307 209.358L 123.869 208.938L 123.304 208.519L 122.721 208.227L 122.01 207.935L 119.713 208.938L 117.562 209.795L 116.414 210.069L 115.265 210.361L 112.968 210.926L 110.671 211.218L 108.229 211.491L 105.932 211.783L 103.489 211.911L 98.895 211.911L 94.1554 211.911L 89.4339 211.911L 84.6943 211.911L 82.3973 211.911L 80.2463 212.056L 77.9493 212.348L 75.6524 212.622L 73.4831 213.059L 71.332 213.625L 69.3268 214.19L 68.1783 214.609L 67.1757 215.047L 66.1731 215.466L 65.1705 216.032L 63.1652 217.181L 61.2876 218.457L 60.285 219.168L 59.4282 220.007L 57.5505 221.721L 56.6937 222.706L 55.837 223.709L 54.9802 224.839L 54.1234 225.988L 53.2484 227.119L 52.5374 228.395L 55.126 229.817L 57.8422 231.094L 60.5766 232.37L 63.2928 233.373L 66.1731 234.358L 67.6132 234.796L 68.9075 235.215L 71.7695 236.072L 74.6316 236.637L 77.5118 237.203L 80.5197 237.622L 83.4 238.06L 86.4078 238.333L 89.4339 238.625L 92.296 238.899L 95.3038 238.899L 98.3299 239.044L 104.346 239.044L 110.38 238.899L 116.414 238.625L 122.448 238.187L 134.351 237.622L 140.24 237.349L 146.128 237.057zM 82.8166 220.007L 84.9677 219.442L 85.6969 219.296L 86.262 219.296L 86.5537 219.296L 86.6995 219.296L 86.5537 219.296L 84.2568 221.01L 83.4 221.575L 82.3973 222.578L 81.3947 223.709L 81.2489 223.709L 80.9572 224L 80.2463 224.839L 79.2254 226.699L 78.6603 227.684L 78.3686 228.687L 77.8035 230.091L 77.8035 230.674L 77.6577 231.094L 77.6577 231.386L 77.5118 231.805L 77.2202 232.224L 76.8009 232.662L 76.0717 233.082L 75.3608 233.373L 74.2123 233.501L 72.918 233.373L 72.3529 233.227L 71.7695 232.936L 71.332 232.662L 71.0586 232.37L 70.9128 231.951L 70.6211 231.513L 70.6211 231.094L 70.4753 230.674L 70.6211 229.963L 70.7669 229.252L 70.9128 228.541L 71.7695 227.392L 72.6263 226.262L 73.4831 225.277L 74.504 224.274L 75.5066 223.563L 76.5092 222.852L 77.5118 222.286L 78.3686 221.721L 80.1004 220.864L 81.5223 220.299L 82.5432 220.007L 82.8166 220.007zM 79.3712 215.466L 79.8088 215.466L 80.8114 215.321L 81.6682 215.193L 81.814 215.321L 81.5223 215.466L 80.1004 216.469L 77.8035 218.165L 74.7774 220.445L 73.7748 221.156L 72.6263 222.14L 71.4779 223.289L 70.1836 224.274L 68.3242 226.262L 67.4674 227.119L 67.1757 227.392L 66.4648 228.249L 65.3163 229.106L 64.1678 229.817L 63.5845 229.963L 63.0194 230.091L 62.436 230.091L 61.8709 229.963L 60.8683 229.672L 60.5766 229.526L 60.285 229.106L 59.9933 228.687L 59.8475 228.103L 59.7198 227.83L 59.7198 227.392L 59.7198 226.553L 59.8475 226.116L 60.1391 225.55L 60.4308 224.985L 60.8683 224.42L 61.2876 224L 61.8709 223.417L 63.0194 222.286L 64.3137 221.302L 65.5897 220.445L 68.1783 218.876L 70.3294 217.746L 71.4779 217.308L 72.7722 216.889L 75.78 216.178L 78.2228 215.758L 79.3712 215.466zM 208.855 220.007L 209.129 220.007L 210.15 220.299L 211.572 220.864L 213.303 221.721L 215.163 222.852L 216.165 223.563L 217.168 224.274L 218.189 225.277L 219.046 226.262L 219.611 226.827L 220.048 227.392L 220.759 228.541L 220.905 228.687L 221.051 229.252L 221.051 229.526L 221.051 229.963L 221.197 230.674L 221.051 231.094L 221.051 231.513L 220.905 231.951L 220.613 232.37L 220.34 232.662L 219.902 232.936L 219.337 233.227L 218.754 233.373L 217.46 233.501L 216.895 233.501L 216.457 233.373L 215.6 233.082L 215.309 232.79L 215.017 232.662L 214.452 232.224L 214.16 231.805L 214.014 231.386L 214.014 231.094L 213.868 230.091L 213.449 228.687L 213.012 227.684L 212.447 226.699L 211.863 225.696L 211.426 224.839L 210.715 224L 210.423 223.709L 209.275 222.578L 208.272 221.575L 207.415 221.01L 205.118 219.296L 205.41 219.296L 206.704 219.442L 208.855 220.007zM 212.301 215.466L 213.449 215.758L 215.892 216.178L 217.46 216.469L 218.9 216.889L 220.194 217.308L 221.343 217.746L 223.494 218.876L 226.082 220.445L 227.358 221.302L 228.653 222.286L 229.801 223.417L 230.804 224.42L 231.533 225.55L 231.825 226.116L 231.952 226.553L 231.952 227.392L 231.952 228.103L 231.679 228.687L 231.387 229.106L 231.095 229.526L 230.804 229.672L 229.947 229.963L 229.382 230.091L 228.653 230.091L 228.088 229.963L 227.504 229.817L 226.939 229.526L 226.356 229.106L 225.791 228.687L 225.207 228.249L 224.205 227.119L 223.348 226.262L 221.488 224.274L 220.194 223.289L 219.046 222.14L 217.897 221.156L 217.314 220.864L 216.895 220.445L 213.868 218.165L 211.572 216.469L 210.15 215.466L 210.004 215.321L 210.004 215.193L 210.423 215.193L 210.861 215.321L 212.301 215.466zM 146.128 283.939L 144.396 283.939L 142.974 283.793L 141.534 283.502L 140.094 283.228L 138.945 282.791L 138.38 282.517L 137.797 282.225L 137.359 281.952L 136.94 281.66L 136.503 281.241L 136.083 280.949L 135.646 280.529L 135.208 280.092L 134.643 279.107L 134.06 277.958L 133.786 277.393L 133.64 276.828L 133.495 276.116L 133.203 275.551L 133.203 274.84L 133.057 273.983L 132.911 273.272L 132.911 272.433L 132.911 270.865L 133.349 271.43L 133.786 271.868L 134.351 272.433L 135.062 272.852L 136.503 273.709L 138.088 274.421L 139.091 274.694L 139.948 274.84L 141.953 275.259L 142.974 275.405L 143.977 275.551L 145.982 275.551L 148.133 275.551L 150.138 275.259L 151.141 275.132L 152.016 274.84L 153.018 274.694L 153.875 274.421L 155.461 273.709L 157.029 272.852L 157.612 272.433L 158.177 271.868L 158.615 271.43L 159.034 270.865L 159.034 272.433L 158.907 273.983L 158.761 275.551L 158.615 276.116L 158.469 276.828L 158.177 277.393L 158.032 277.958L 157.758 278.542L 157.466 279.107L 157.175 279.526L 156.883 280.092L 156.464 280.529L 156.026 280.949L 155.315 281.66L 154.313 282.225L 153.164 282.791L 152.016 283.228L 150.722 283.502L 149.281 283.793L 147.695 283.939L 146.128 283.939zM 155.17 261.911L 155.17 262.768L 155.024 263.625L 154.732 264.61L 154.586 265.048L 154.44 265.321L 154.167 266.178L 153.584 266.889L 153.164 267.601L 152.581 268.312L 151.87 268.877L 151.141 269.442L 150.43 269.862L 149.573 270.154L 148.698 270.573L 148.279 270.573L 147.841 270.719L 146.984 270.865L 145.982 270.865L 145.125 270.865L 144.25 270.719L 143.247 270.573L 142.828 270.445L 142.536 270.154L 141.68 269.862L 140.951 269.442L 140.24 268.877L 139.529 268.312L 138.945 267.601L 138.38 266.889L 137.943 266.178L 137.651 265.321L 137.232 264.61L 137.232 264.191L 137.086 263.625L 136.94 262.768L 136.94 261.911L 136.94 260.927L 137.086 260.07L 137.232 259.212L 137.359 258.793L 137.651 258.374L 137.943 257.517L 138.38 256.805L 138.945 256.094L 139.529 255.383L 140.24 254.818L 140.951 254.38L 141.68 253.815L 142.536 253.541L 143.247 253.25L 143.685 253.104L 144.25 252.976L 145.125 252.83L 145.982 252.83L 146.984 252.83L 147.841 252.976L 148.698 253.25L 149.136 253.395L 149.573 253.541L 150.43 253.815L 151.141 254.38L 151.87 254.818L 152.581 255.383L 153.164 256.094L 153.584 256.805L 154.167 257.517L 154.44 258.374L 154.732 259.212L 154.878 259.65L 155.024 260.07L 155.17 260.927L 155.17 261.911zM 246.882 248.983L 245.88 248.563L 245.023 247.998L 244.312 247.578L 243.728 246.995L 243.163 246.43L 242.726 245.864L 242.434 245.299L 242.142 244.734L 242.015 244.169L 241.869 243.457L 241.869 242.309L 242.015 241.743L 242.142 241.324L 242.288 241.032L 242.434 240.759L 242.58 240.321L 242.872 239.901L 243.163 239.482L 243.874 238.771L 244.731 238.333L 245.169 238.187L 245.588 238.187L 246.025 238.187L 246.463 238.187L 246.882 238.479L 247.32 238.625L 247.611 239.044L 248.031 239.482L 248.614 240.613L 248.176 241.597L 247.885 242.454L 247.757 243.311L 247.757 244.023L 247.885 244.734L 248.176 245.299L 248.468 245.864L 248.906 246.43L 249.471 246.721L 250.054 247.141L 250.619 247.433L 251.33 247.578L 252.059 247.706L 252.916 247.852L 253.627 247.852L 254.502 247.706L 255.213 247.578L 256.07 247.433L 256.799 247.141L 257.51 246.721L 258.221 246.284L 258.804 245.864L 259.369 245.153L 259.953 244.588L 260.244 243.877L 260.664 243.02L 260.809 242.181L 260.955 241.324L 260.955 240.193L 260.809 239.756L 260.664 239.19L 260.372 238.06L 259.953 236.783L 259.515 236.072L 259.096 235.489L 258.513 235.069L 257.947 234.65L 257.072 234.358L 256.216 234.084L 255.359 233.939L 254.356 233.793L 252.351 233.793L 250.054 234.084L 247.611 234.358L 245.169 234.923L 242.58 235.634L 241.286 235.926L 240.137 236.346L 237.694 237.057L 235.398 237.914L 231.533 239.336L 229.947 239.756L 228.798 240.193L 227.085 240.759L 225.207 241.178L 223.056 241.47L 220.905 241.743L 218.462 242.035L 216.02 242.309L 213.303 242.454L 210.569 242.6L 204.973 242.746L 198.939 242.892L 192.923 242.746L 186.597 242.6L 174.402 242.035L 163.063 241.47L 153.292 241.032L 149.281 240.886L 145.982 240.886L 142.682 240.886L 138.654 241.032L 128.901 241.47L 117.562 242.035L 105.221 242.6L 99.0409 242.746L 93.0069 242.892L 86.9912 242.746L 84.1109 242.746L 81.2489 242.6L 78.6603 242.454L 75.9259 242.309L 73.4831 242.035L 71.0586 241.743L 68.9075 241.47L 66.7382 241.178L 64.8788 240.759L 63.1652 240.193L 56.5479 237.914L 54.251 237.057L 51.8265 236.346L 49.3837 235.634L 46.7951 234.923L 44.3524 234.358L 43.2039 234.212L 41.9096 234.084L 39.6127 233.793L 37.6075 233.793L 36.6048 233.939L 35.7481 234.084L 34.873 234.358L 34.0162 234.65L 33.4511 235.069L 32.8678 235.489L 32.4485 236.072L 32.011 236.783L 31.5735 238.06L 31.3001 239.19L 31.0084 240.193L 31.0084 241.324L 31.0084 241.743L 31.1542 242.181L 31.1542 242.6L 31.3001 243.02L 31.4277 243.457L 31.7193 243.877L 32.011 244.588L 32.5761 245.153L 33.1595 245.864L 33.4511 246.01L 33.7246 246.284L 34.4538 246.721L 35.1647 247.141L 35.8939 247.433L 36.7507 247.578L 37.4616 247.706L 38.3184 247.852L 39.0476 247.852L 39.9044 247.706L 40.6153 247.578L 41.3445 247.433L 41.9096 247.141L 42.493 246.721L 42.7664 246.576L 43.0581 246.43L 43.4956 245.864L 43.7873 245.299L 44.0607 244.734L 44.0607 244.442L 44.2065 244.023L 44.2065 243.311L 44.0607 242.454L 43.7873 241.597L 43.3498 240.613L 43.6414 240.047L 43.9149 239.482L 44.3524 239.044L 44.644 238.625L 45.0633 238.479L 45.5008 238.187L 46.3576 238.187L 46.7951 238.187L 47.2326 238.333L 47.6519 238.479L 48.0894 238.771L 48.3811 239.044L 48.8004 239.482L 49.092 239.901L 49.3837 240.321L 49.5296 240.759L 49.803 241.324L 49.9488 241.743L 50.0947 242.309L 50.0947 243.457L 49.9488 244.169L 49.803 244.734L 49.5296 245.299L 49.2379 245.864L 48.8004 246.43L 48.2353 246.995L 47.6519 247.578L 46.941 247.998L 46.0842 248.563L 45.0633 248.983L 45.7925 249.986L 46.2118 250.405L 46.6493 250.97L 47.7977 251.681L 48.3811 252.119L 49.092 252.393L 50.5322 252.976L 52.2457 253.541L 54.1234 253.961L 56.1286 254.253L 58.2797 254.38L 60.5766 254.526L 62.8735 254.672L 65.3163 254.672L 70.4753 254.38L 75.78 253.961L 81.2489 253.395L 86.6995 252.684L 91.8585 251.973L 96.8898 251.116L 101.484 250.405L 105.64 249.566L 111.82 248.417L 115.119 247.578L 117.562 246.867L 120.151 246.284L 122.721 246.01L 123.724 246.01L 124.307 246.01L 124.744 246.156L 125.601 246.43L 125.893 246.576L 126.166 246.721L 126.312 246.995L 126.458 247.433L 126.604 247.706L 126.458 248.144L 126.312 249.128L 126.166 249.986L 125.455 251.681L 124.744 253.541L 123.724 255.383L 121.573 258.939L 120.424 260.927L 119.421 262.768L 119.002 263.771L 118.565 264.756L 117.708 266.744L 117.416 267.747L 117.27 268.731L 117.125 269.862L 116.979 270.865L 116.979 271.995L 116.979 273.144L 117.27 274.275L 117.562 275.405L 117.854 276.554L 118.419 277.685L 119.002 278.961L 119.713 280.238L 121.573 282.936L 122.575 284.359L 123.596 285.635L 124.744 286.766L 125.893 287.915L 126.604 288.334L 127.315 288.753L 128.044 289.191L 128.755 289.61L 130.341 290.048L 132.055 290.468L 134.06 290.887L 136.211 291.179L 138.508 291.452L 140.951 291.598L 143.539 291.744L 145.982 291.744L 148.57 291.744L 150.995 291.598L 153.438 291.452L 155.735 291.179L 156.883 291.033L 157.886 290.887L 159.909 290.468L 161.623 290.048L 163.209 289.61L 163.92 289.191L 164.631 288.753L 166.071 287.915L 167.219 286.766L 168.368 285.635L 169.37 284.359L 170.373 282.936L 172.251 280.238L 172.962 278.961L 173.545 277.685L 174.11 276.554L 174.402 275.405L 174.693 274.275L 174.967 273.144L 174.967 271.995L 174.967 270.865L 174.839 269.862L 174.693 268.731L 174.547 267.747L 174.256 266.744L 173.818 265.759L 173.399 264.756L 172.542 262.768L 171.521 260.927L 170.373 258.939L 168.222 255.383L 167.219 253.541L 166.508 251.681L 166.071 250.843L 165.779 249.986L 165.651 249.128L 165.506 248.144L 165.36 247.706L 165.506 247.433L 165.651 246.995L 165.779 246.721L 166.071 246.576L 166.362 246.43L 167.219 246.156L 167.657 246.01L 168.222 246.01L 169.224 246.01L 170.519 246.156L 171.813 246.284L 174.402 246.867L 176.844 247.578L 178.85 247.998L 180.144 248.417L 186.305 249.566L 190.48 250.405L 195.074 251.116L 200.087 251.973L 205.264 252.684L 210.715 253.395L 216.165 253.961L 218.754 254.253L 221.488 254.38L 224.059 254.526L 226.647 254.672L 229.09 254.672L 231.387 254.526L 233.684 254.38L 235.835 254.253L 236.838 254.107L 237.84 253.961L 239.718 253.541L 241.432 252.976L 242.872 252.393L 244.166 251.681L 245.314 250.97L 246.171 249.986L 246.609 249.42L 246.882 248.983zM 176.99 188.624L 176.261 188.624L 175.696 188.916L 175.113 189.19L 174.693 189.627L 174.256 190.047L 173.964 190.612L 173.691 191.177L 173.691 191.888L 173.691 192.454L 173.964 193.165L 174.256 193.73L 174.693 194.168L 175.113 194.587L 175.696 194.879L 176.261 195.025L 176.99 195.152L 177.555 195.025L 178.285 194.879L 178.85 194.587L 179.287 194.168L 179.706 193.73L 179.998 193.165L 180.144 192.454L 180.29 191.888L 180.144 191.177L 179.998 190.612L 179.706 190.047L 179.287 189.627L 178.85 189.19L 178.285 188.916L 177.555 188.624L 176.99 188.624zM 114.973 188.624L 114.408 188.624L 113.679 188.916L 113.114 189.19L 112.677 189.627L 112.239 190.047L 111.966 190.612L 111.82 191.177L 111.674 191.888L 111.82 192.454L 111.966 193.165L 112.239 193.73L 112.677 194.168L 113.26 194.587L 113.679 194.879L 114.408 195.025L 114.973 195.152L 115.684 195.025L 116.268 194.879L 116.833 194.587L 117.416 194.168L 117.708 193.73L 117.981 193.165L 118.273 192.454L 118.273 191.888L 118.273 191.177L 117.981 190.612L 117.708 190.047L 117.27 189.627L 116.833 189.19L 116.268 188.916L 115.684 188.624L 114.973 188.624zM 265.403 214.755L 265.695 214.336L 265.841 213.916L 265.695 213.771L 265.695 213.625L 265.403 213.625L 265.257 213.625L 264.547 213.916L 263.69 214.19L 262.541 214.482L 261.101 214.609L 259.369 214.609L 257.51 214.336L 256.507 214.19L 255.505 213.916L 254.356 213.479L 253.499 213.205L 251.768 212.348L 250.327 211.491L 249.617 211.072L 249.033 210.634L 248.031 209.795L 247.174 208.938L 245.734 207.37L 245.46 207.096L 245.169 207.096L 245.023 207.224L 245.023 207.516L 244.877 208.081L 244.877 208.646L 245.023 209.923L 245.169 211.491L 245.588 213.059L 246.025 214.482L 246.609 215.612L 247.174 216.469L 247.611 216.889L 248.031 217.454L 248.906 218.311L 249.471 218.73L 250.054 219.296L 250.619 219.588L 251.203 220.007L 251.913 220.445L 252.624 220.718L 253.499 220.864L 254.356 221.156L 255.213 221.156L 256.216 221.302L 257.218 221.302L 258.075 221.01L 258.95 220.864L 259.807 220.445L 260.518 220.153L 261.247 219.588L 261.958 219.168L 262.541 218.603L 263.106 218.019L 263.544 217.454L 264.401 216.469L 264.966 215.466L 265.403 214.755zM 269.14 200.842L 265.257 200.842L 263.544 200.696L 261.812 200.55L 260.372 200.277L 259.223 200.131L 258.221 199.839L 257.51 199.565L 256.216 199L 255.359 198.708L 254.356 198.143L 253.499 197.578L 252.479 196.867L 251.622 196.01L 250.765 194.879L 250.327 194.441L 250.054 194.168L 249.908 194.168L 249.762 194.441L 249.908 195.444L 250.054 196.867L 250.473 198.708L 251.057 200.422L 251.768 201.972L 252.059 202.538L 252.479 203.121L 253.062 203.96L 253.919 204.817L 254.775 205.82L 255.359 206.239L 256.07 206.659L 256.799 207.096L 257.51 207.37L 258.513 207.662L 259.515 207.935L 260.809 208.227L 262.104 208.373L 263.69 208.519L 265.257 208.519L 266.989 208.373L 267.846 208.227L 268.557 208.081L 269.997 207.662L 270.58 207.37L 271.146 207.224L 272.294 206.513L 273.297 205.82L 274.299 205.109L 275.028 204.398L 275.739 203.541L 276.305 202.829L 276.742 201.972L 277.18 201.261L 277.745 200.131L 278.036 199.419L 278.328 198.708L 278.328 197.997L 278.328 197.578L 278.182 197.286L 277.599 197.851L 276.742 198.417L 275.739 199L 274.299 199.565L 272.859 200.131L 272.002 200.422L 271 200.55L 270.143 200.696L 269.14 200.842zM 273.297 180.528L 271.146 180.674L 269.14 180.82L 265.403 180.947L 261.958 180.947L 260.372 180.82L 258.95 180.674L 256.216 180.382L 253.919 179.963L 252.059 179.251L 251.33 178.96L 250.619 178.54L 250.054 178.394L 249.908 178.394L 249.762 178.394L 249.617 178.54L 249.471 178.686L 249.617 179.251L 249.617 179.543L 249.762 179.817L 250.054 180.674L 250.473 181.658L 250.911 182.661L 252.205 184.795L 252.916 185.78L 253.499 186.783L 254.21 187.64L 254.921 188.478L 255.651 189.044L 256.216 189.627L 257.364 190.193L 258.658 190.904L 260.099 191.615L 260.955 191.888L 261.666 192.034L 263.398 192.6L 264.255 192.745L 265.257 192.891L 266.114 192.891L 267.135 193.037L 268.138 193.037L 269.286 192.891L 271.437 192.745L 273.734 192.454L 275.885 191.888L 276.888 191.469L 278.036 191.031L 279.039 190.612L 280.042 189.901L 281.044 189.335L 281.919 188.478L 282.776 187.64L 283.195 187.202L 283.633 186.783L 284.49 185.634L 285.219 184.503L 287.37 180.382L 288.227 178.96L 288.81 177.683L 289.229 176.407L 289.375 175.841L 289.521 175.276L 289.813 173.854L 290.086 172.286L 290.232 170.736L 290.378 169.879L 290.378 169.459L 290.232 169.313L 290.086 169.459L 289.958 169.733L 289.813 170.024L 289.521 170.444L 288.81 171.574L 287.516 173.143L 286.641 174L 285.784 174.984L 285.219 175.422L 284.635 175.841L 283.487 176.844L 282.047 177.683L 280.625 178.54L 279.039 179.251L 277.18 179.817L 275.302 180.236L 274.299 180.382L 273.297 180.528zM 146.401 175.696L 146.984 175.276L 147.422 174.839L 148.425 174L 148.844 173.434L 149.281 172.851L 149.992 171.72L 150.284 171.155L 150.576 170.444L 151.141 169.167L 151.432 167.891L 151.578 166.469L 152.016 170.152L 152.727 173.708L 154.021 180.674L 154.878 184.23L 155.735 187.64L 156.737 191.177L 157.886 194.587L 158.032 195.025L 158.032 195.444L 158.032 196.155L 158.032 196.721L 157.758 197.286L 157.612 197.432L 157.466 197.724L 157.029 197.997L 156.61 198.289L 156.172 198.417L 155.589 198.417L 155.024 198.417L 154.313 198.289L 153.729 198.143L 153.164 197.851L 152.727 197.432L 152.289 197.012L 151.87 196.429L 151.578 195.718L 151.287 195.025L 150.867 193.165L 150.576 191.177L 150.138 189.044L 149.846 187.913L 149.573 186.928L 149.281 186.071L 148.844 185.36L 148.279 184.649L 147.841 184.23L 147.13 183.792L 146.401 183.792L 145.982 183.792L 145.544 183.792L 145.271 183.938L 144.979 184.23L 144.396 184.649L 143.831 185.36L 143.393 186.071L 143.102 186.928L 142.536 189.044L 142.099 191.177L 141.68 193.165L 141.242 195.025L 140.951 195.718L 140.677 196.429L 140.24 197.012L 139.802 197.432L 139.383 197.851L 138.799 198.143L 138.234 198.289L 137.505 198.417L 136.94 198.417L 136.357 198.417L 135.937 198.289L 135.5 197.997L 135.062 197.724L 134.789 197.286L 134.497 196.721L 134.497 196.155L 134.497 195.444L 134.643 194.587L 135.792 191.177L 136.794 187.64L 137.651 184.23L 138.508 180.674L 139.237 177.264L 139.802 173.708L 140.531 170.152L 140.951 166.469L 141.096 167.891L 141.534 169.167L 141.953 170.444L 142.536 171.72L 142.974 172.286L 143.393 172.851L 143.831 173.434L 144.25 174L 145.271 174.839L 146.401 175.696zM 145.836 104.104L 145.398 103.266L 144.979 101.989L 144.396 100.421L 143.831 98.7068L 143.393 96.7192L 142.828 94.7315L 142.391 92.7439L 142.099 90.6286L 141.953 88.6228L 141.826 86.6351L 141.953 84.9393L 141.953 84.0822L 142.099 83.371L 142.391 82.6599L 142.682 81.9487L 142.974 81.5293L 143.247 80.964L 143.685 80.6722L 144.122 80.3987L 144.688 80.2528L 145.271 80.107L 145.982 80.2528L 146.547 80.3987L 147.13 80.6722L 147.55 81.1099L 147.987 81.5293L 148.425 82.0946L 148.698 82.6599L 148.844 83.5169L 148.99 84.2281L 149.136 85.0851L 149.281 86.9269L 149.281 88.9145L 149.136 90.9022L 148.844 93.0357L 148.57 95.1692L 148.133 97.1568L 147.695 98.9986L 146.693 102.263L 146.274 103.411L 145.836 104.104zM 175.696 42.4696L 175.842 42.889L 175.988 43.4543L 176.261 44.6031L 176.407 45.5878L 176.553 46.7366L 176.553 47.7213L 176.553 48.7243L 176.553 49.709L 176.407 50.7119L 175.988 52.6995L 175.55 54.5413L 174.967 56.2554L 174.256 57.8054L 173.399 59.2277L 172.67 60.5042L 171.959 61.6348L 171.248 62.6377L 170.665 63.3489L 170.245 63.9142L 169.808 64.3336L 157.029 77.6999L 157.758 75.4205L 159.326 70.0229L 161.058 63.7683L 161.769 60.9418L 162.206 58.8083L 162.48 56.6748L 162.771 53.976L 163.063 50.7119L 163.063 47.1561L 162.917 45.4602L 162.917 43.6002L 162.625 41.6126L 162.352 39.9167L 162.06 38.0567L 161.623 36.3609L 161.331 35.5038L 161.058 34.665L 160.766 33.8079L 160.474 33.0968L 158.469 28.5562L 158.032 27.4074L 157.758 26.5686L 157.758 26.2768L 157.886 26.2768L 158.469 26.5686L 160.055 27.1339L 162.48 28.2645L 163.774 29.1215L 165.214 29.9785L 166.8 30.9633L 168.222 32.2397L 169.808 33.5162L 171.248 34.9385L 171.813 35.7956L 172.542 36.6526L 173.691 38.3485L 174.256 39.3514L 174.839 40.3361L 175.258 41.3391L 175.696 42.4696zM 116.268 42.4696L 116.705 41.3391L 117.125 40.3361L 118.273 38.3485L 119.421 36.6526L 120.716 34.9385L 122.156 33.5162L 123.724 32.2397L 125.164 30.9633L 126.75 29.9785L 128.172 29.1215L 129.466 28.2645L 131.909 27.1339L 133.495 26.5686L 134.06 26.2768L 134.206 26.2768L 134.206 26.5686L 133.914 27.4074L 133.495 28.5562L 131.489 33.0968L 130.906 34.665L 130.341 36.3609L 130.195 37.2179L 129.903 38.0567L 129.612 39.9167L 129.32 41.6126L 129.192 43.6002L 129.047 45.4602L 128.901 47.1561L 128.901 48.9978L 129.047 50.7119L 129.192 53.976L 129.466 56.6748L 129.758 58.8083L 130.195 60.9418L 130.906 63.7683L 132.638 70.0229L 134.206 75.4205L 134.935 77.6999L 122.156 64.3336L 121.864 63.9142L 120.716 62.6377L 120.005 61.6348L 119.276 60.5042L 118.565 59.2277L 117.708 57.8054L 117.125 56.2554L 116.414 54.5413L 115.976 52.6995L 115.684 51.6966L 115.557 50.7119L 115.411 49.709L 115.411 48.7243L 115.411 47.7213L 115.411 46.7366L 115.557 45.5878L 115.684 44.6031L 115.976 43.4543L 116.268 42.4696zM 145.69 0L 143.393 1.00293L 141.096 2.13351L 136.211 4.12112L 125.601 8.38815L 122.867 9.51874L 120.151 10.6493L 114.536 13.2022L 109.231 15.7734L 106.643 17.1775L 104.218 18.5998L 101.775 20.1681L 99.4784 21.7363L 97.1815 23.4321L 95.158 25.2739L 94.1554 26.131L 93.1527 27.1339L 91.4392 29.1215L 90.5642 30.1062L 89.7074 31.1091L 88.2855 33.2426L 87.137 35.5038L 86.5537 36.6526L 85.9885 37.9291L 85.551 39.0597L 85.2594 40.3361L 84.8401 41.6126L 84.6943 42.889L 84.4026 44.3114L 84.2568 45.7337L 84.2568 47.1561L 84.2568 48.5784L 84.4026 51.5507L 84.6943 53.119L 84.9677 54.6872L 85.2594 55.9636L 85.6969 57.2401L 86.1162 58.5166L 86.6995 59.793L 87.2646 60.9418L 87.848 62.0724L 88.5589 63.3489L 89.4339 64.4794L 90.2907 65.4824L 91.1475 66.613L 93.0069 68.6006L 94.0095 69.4576L 95.0304 70.3147L 96.033 71.1535L 97.1815 71.8647L 98.3299 72.7217L 99.7518 73.4329L 102.632 75.0011L 105.64 76.5511L 108.939 78.1193L 115.83 81.3834L 119.276 83.0975L 122.575 84.9393L 125.747 86.9269L 127.169 87.9116L 128.755 89.0604L 130.049 90.191L 131.344 91.3216L 132.492 92.6163L 133.64 93.8927L 134.643 95.1692L 135.5 96.5915L 136.357 98.0139L 136.94 99.418L 137.505 100.986L 137.797 102.554L 137.943 103.411L 137.943 104.25L 138.088 106.11L 133.057 102.263L 128.044 98.4333L 125.455 96.5915L 124.161 95.7345L 122.721 94.8774L 120.005 93.3092L 118.711 92.6163L 117.27 91.9051L 111.82 89.3339L 106.077 86.5075L 103.197 85.0851L 100.335 83.5169L 98.895 82.6599L 97.4549 81.8211L 94.7387 79.9611L 92.0043 78.1193L 89.5615 76.1317L 88.2855 75.0011L 87.137 73.9982L 85.9885 72.8676L 84.9677 71.737L 83.8192 70.5882L 82.9625 69.3118L 81.9598 68.1812L 81.103 66.9047L 80.3739 65.6283L 79.6629 64.2059L 78.952 62.9295L 78.3686 61.5071L 77.9493 60.3583L 77.6577 59.2277L 77.366 58.0971L 77.0743 56.9483L 76.8009 55.6719L 76.655 54.5413L 76.3634 52.2619L 76.3634 49.8549L 76.3634 47.5755L 76.655 45.3143L 76.9285 44.0379L 77.0743 42.889L 77.366 41.7585L 77.6577 40.7555L 78.077 39.625L 78.5145 38.4944L 78.952 37.3638L 79.3712 36.3609L 80.5197 34.2274L 81.6682 32.2397L 83.1083 30.398L 83.8192 29.395L 84.6943 28.5562L 85.4052 27.6992L 86.262 26.8421L 85.1135 26.5686L 83.9651 26.2768L 82.6708 26.131L 81.5223 26.131L 80.3739 26.131L 79.2254 26.131L 77.9493 26.2768L 76.8009 26.4227L 75.6524 26.6962L 74.504 26.988L 73.3555 27.2798L 72.207 27.6992L 69.9101 28.6839L 68.7617 29.2674L 67.759 29.8327L 65.5897 31.1091L 64.5871 31.9662L 63.5845 32.6774L 61.5793 34.3732L 59.7198 36.215L 57.8422 38.2026L 56.2745 40.1902L 54.6885 42.4696L 53.2484 44.749L 51.9541 47.1561L 51.389 48.2866L 50.9515 49.5631L 49.9488 51.9884L 49.5296 53.2648L 49.092 54.5413L 48.8004 55.8177L 48.5087 57.0942L 48.0894 59.6471L 47.7977 62.2183L 47.7977 63.4948L 47.7977 64.7712L 47.7977 66.0477L 47.9436 67.3241L 48.2353 68.6006L 48.3811 69.877L 49.092 72.3023L 49.3837 73.5788L 49.9488 74.7094L 50.3863 75.8399L 51.0973 76.9888L 51.6806 78.1193L 52.3916 79.2499L 53.2484 80.2528L 54.1234 81.3834L 55.126 82.3864L 56.1286 83.371L 56.9854 84.0822L 57.8422 84.7934L 59.9933 86.2157L 61.1417 86.781L 62.2902 87.3463L 63.5845 87.9116L 64.8788 88.4951L 66.1731 88.9145L 67.4674 89.4798L 68.9075 89.9175L 70.3294 90.3369L 73.3555 91.048L 76.5092 91.7592L 83.1083 93.1815L 89.999 94.3121L 96.8898 95.5886L 100.335 96.2998L 103.781 97.1568L 107.226 98.0139L 110.525 98.8527L 113.679 99.8556L 116.833 100.986L 118.273 101.697L 119.713 102.263L 122.575 103.685L 123.869 104.542L 125.164 105.253L 126.458 106.11L 127.606 107.095L 128.755 107.952L 129.903 109.083L 130.906 110.086L 131.909 111.216L 132.765 112.347L 133.64 113.623L 134.351 114.9L 135.062 116.194L 135.646 117.598L 136.211 119.167L 136.648 120.589L 137.086 122.285L 137.359 123.999L 137.651 125.695L 137.797 127.555L 137.797 129.542L 137.797 153.959L 136.503 155.819L 135.937 155.254L 135.354 154.67L 134.935 153.832L 134.351 152.975L 133.786 151.844L 133.203 150.568L 132.055 147.869L 129.32 141.176L 127.898 137.493L 126.166 133.664L 124.161 129.816L 123.596 128.977L 123.159 127.974L 122.01 126.132L 120.716 124.291L 119.567 122.577L 118.127 120.881L 116.705 119.167L 115.265 117.598L 114.408 116.887L 113.533 116.194L 112.822 115.483L 111.82 114.772L 110.088 113.495L 109.085 112.912L 108.229 112.347L 107.226 111.927L 106.223 111.508L 104.072 110.651L 101.775 109.94L 100.627 109.648L 99.1867 109.374L 96.4523 109.083L 93.5903 108.809L 90.5642 108.517L 87.4105 108.517L 84.2568 108.517L 80.9572 108.517L 77.5118 108.663L 70.4753 108.809L 63.4387 108.937L 59.8475 109.083L 56.4021 109.083L 52.9749 108.937L 49.5296 108.809L 46.2118 108.517L 44.4982 108.226L 42.9122 108.098L 41.3445 107.806L 39.7585 107.514L 38.3184 107.241L 36.7507 106.803L 35.3105 106.384L 34.0162 105.964L 32.5761 105.399L 31.3001 104.816L 30.0058 104.25L 28.7115 103.539L 27.563 102.828L 26.4145 102.117L 25.2661 101.278L 24.2635 100.421L 23.2608 99.418L 22.24 98.4333L 21.3832 97.3027L 20.6723 96.1539L 19.9431 94.8774L 19.2321 93.601L 18.667 92.1786L 18.0837 90.7563L 17.6644 89.2063L 17.2269 87.6381L 16.9352 85.924L 16.6435 84.0822L 16.5159 82.2405L 16.3701 80.2528L 14.7841 82.0946L 13.344 83.9363L 12.0497 86.0699L 11.4846 87.0728L 10.9012 88.2034L 9.89862 90.4828L 9.47934 91.6133L 9.04183 92.7439L 8.60432 95.1692L 8.33088 96.2998L 8.33088 97.4303L 8.18505 100.129L 8.03921 102.7L 8.18505 105.107L 8.33088 107.241L 8.60432 109.374L 8.896 111.362L 9.3335 113.204L 9.89862 114.9L 10.482 116.468L 11.1929 117.89L 11.9221 119.313L 12.7789 120.443L 13.7815 121.592L 14.6383 122.577L 15.7867 123.434L 16.9352 124.291L 18.0837 124.984L 19.378 125.567L 20.6723 126.132L 22.1124 126.552L 23.5343 126.99L 24.9744 127.263L 26.5604 127.409L 27.9823 127.555L 29.7141 127.682L 31.3001 127.682L 33.0136 127.555L 34.7454 127.555L 38.3184 127.117L 41.9096 126.552L 43.7873 126.278L 45.6467 125.841L 49.5296 125.13L 53.3942 124.145L 57.2771 123.142L 65.0246 121.154L 72.6263 119.167L 76.2175 118.31L 79.8088 117.598L 83.2541 117.033L 86.5537 116.468L 88.2855 116.322L 89.7074 116.322L 91.2933 116.194L 92.7335 116.322L 94.1554 116.322L 95.4497 116.468L 96.744 116.76L 98.0383 117.033L 100.189 117.744L 102.486 118.601L 104.637 119.586L 106.643 120.881L 108.666 122.157L 110.525 123.58L 112.385 125.275L 113.971 126.844L 115.265 128.266L 116.559 129.962L 117.854 131.949L 119.276 134.083L 120.716 136.362L 122.156 138.915L 123.45 141.322L 124.744 144.021L 125.893 146.574L 126.896 149.273L 127.461 150.568L 127.752 151.844L 128.463 154.397L 128.609 155.527L 128.901 156.804L 128.901 157.953L 129.047 158.937L 128.901 160.068L 128.901 161.071L 128.609 161.928L 128.317 162.913L 124.453 158.792L 120.278 154.543L 118.127 152.263L 115.83 150.13L 113.533 148.142L 111.091 146.155L 108.666 144.167L 106.077 142.471L 103.489 140.757L 100.9 139.335L 99.6242 138.769L 98.1841 138.204L 96.8898 137.639L 95.4497 137.201L 92.7335 136.49L 91.2933 136.216L 89.8532 135.925L 88.2855 135.925L 86.8453 135.779L 85.2594 135.779L 83.8192 135.925L 82.3973 136.071L 80.8114 136.362L 77.9493 136.928L 74.9232 137.785L 71.9154 138.915L 70.4753 139.481L 69.0351 140.046L 66.0273 141.322L 63.1652 142.745L 60.1391 144.313L 54.3968 147.285L 48.6545 150.422L 45.7925 151.844L 42.9122 153.12L 40.196 154.397L 37.3158 155.382L 34.5996 156.385L 33.1595 156.804L 31.8652 157.096L 30.425 157.369L 29.1307 157.515L 27.8547 157.661L 26.4145 157.807L 25.1203 157.807L 23.826 157.661L 22.5317 157.515L 21.0915 157.369L 19.8155 157.096L 18.5212 156.658L 17.2269 156.239L 15.9326 155.527L 14.6383 154.962L 13.4898 154.105L 12.1955 153.266L 10.9012 152.263L 9.62518 151.133L 8.47672 149.984L 7.18242 148.562L 6.03396 147.158L 4.73967 145.589L 3.59121 143.875L 2.44275 142.033L 1.14846 140.046L 0.71095 142.179L 0.437508 144.167L 0.145836 146.446L 0 148.562L 0 150.695L 0.145836 152.829L 0.437508 154.962L 0.856786 157.096L 1.29429 158.792L 2.00524 160.652L 2.86203 162.347L 3.88288 163.916L 4.88551 165.338L 6.1798 166.888L 7.45587 168.164L 8.896 169.459L 10.482 170.444L 12.0497 171.574L 13.6357 172.431L 15.3675 173.143L 17.2269 173.708L 18.0837 174L 19.0863 174.273L 19.9431 174.419L 20.9639 174.565L 22.8233 174.711L 25.6854 174.711L 27.1255 174.565L 28.5656 174.419L 30.0058 174.146L 31.3001 173.854L 32.722 173.562L 34.1621 173.143L 35.4564 172.577L 36.7507 172.14L 38.1726 171.447L 39.4669 170.863L 42.0555 169.459L 44.644 168.037L 47.0868 166.323L 49.6572 164.627L 52.0999 162.767L 54.5427 160.925L 59.2823 157.096L 64.022 153.394L 66.4648 151.552L 68.7617 149.856L 71.2044 148.288L 73.629 146.866L 75.9259 145.589L 77.2202 145.024L 78.3686 144.459L 79.6629 143.875L 80.8114 143.456L 82.1057 143.036L 83.2541 142.745L 84.5484 142.471L 85.8427 142.325L 88.2855 142.033L 89.5615 142.033L 90.8558 142.179L 92.1501 142.325L 93.4444 142.599L 94.8845 142.891L 96.1788 143.31L 97.4549 143.875L 98.895 144.459L 100.189 145.17L 101.629 145.863L 103.07 146.866L 104.346 147.869L 105.367 148.562L 106.369 149.565L 107.372 150.695L 108.52 152.118L 110.671 155.254L 111.82 157.096L 112.968 158.937L 115.265 163.059L 117.416 167.453L 118.419 169.587L 119.276 171.866L 120.151 174.146L 121.007 176.407L 121.573 178.686L 122.156 180.947L 122.721 183.081L 123.013 185.214L 123.304 187.202L 123.304 188.205L 123.45 189.19L 123.304 190.047L 123.304 190.904L 123.159 191.742L 123.159 192.6L 122.867 193.457L 122.721 194.168L 122.448 194.879L 122.156 195.59L 121.718 196.155L 121.427 196.721L 120.862 197.286L 120.424 197.724L 119.859 198.143L 119.276 198.562L 118.565 198.854L 117.854 199.128L 116.979 199.419L 116.268 199.565L 115.265 199.711L 114.408 199.711L 113.533 199.565L 112.822 199.565L 112.111 199.419L 111.528 199.128L 110.963 198.854L 110.525 198.562L 110.088 198.143L 109.669 197.724L 108.939 196.575L 108.52 195.444L 108.083 194.022L 107.937 193.165L 107.937 192.454L 107.791 191.615L 107.791 190.758L 107.791 189.044L 107.791 187.056L 107.937 185.214L 108.229 181.093L 108.52 176.844L 108.666 174.711L 108.666 172.723L 108.666 170.59L 108.666 168.602L 108.52 166.76L 108.374 165.757L 108.083 164.9L 107.663 163.204L 107.08 161.636L 106.223 160.068L 105.786 159.503L 105.221 158.792L 104.637 158.226L 104.072 157.807L 103.343 157.242L 102.632 156.804L 101.775 156.385L 100.9 156.093L 100.043 155.819L 99.0409 155.673L 97.8924 155.527L 96.744 155.382L 95.4497 155.382L 94.1554 155.382L 92.7335 155.673L 92.0043 155.819L 91.2933 156.093L 89.8532 156.804L 89.1423 157.242L 88.4131 157.661L 87.848 158.226L 87.2646 158.664L 86.1162 159.795L 85.6969 160.506L 85.1135 161.071L 84.8401 161.782L 84.4026 162.347L 83.8192 163.624L 83.5458 165.046L 83.5458 165.612L 83.5458 166.323L 83.5458 166.888L 83.6916 167.599L 83.9651 168.164L 84.2568 168.748L 84.6943 169.167L 85.2594 169.733L 85.8427 170.152L 86.4078 170.59L 87.2646 171.009L 88.1396 171.301L 88.8506 171.447L 89.7074 171.447L 90.5642 171.447L 91.4392 171.301L 93.0069 171.009L 94.5929 170.736L 95.3038 170.736L 95.8872 170.736L 96.4523 170.863L 96.744 171.009L 97.0356 171.155L 97.1815 171.447L 97.3273 171.72L 97.6007 172.431L 97.7466 173.289L 97.7466 174.565L 97.7466 175.276L 97.6007 176.133L 97.3273 177.683L 96.8898 179.251L 96.3064 180.674L 95.5955 182.096L 95.0304 183.646L 93.5903 186.491L 93.0069 187.913L 92.4418 189.481L 92.0043 190.904L 91.585 192.454L 91.4392 194.022L 91.4392 194.879L 91.4392 195.718L 91.4392 196.575L 91.585 197.432L 91.7126 198.289L 92.0043 199.274L 92.5876 200.988L 92.8611 201.827L 93.2986 202.538L 93.5903 203.249L 94.0095 203.96L 95.0304 205.109L 95.4497 205.528L 95.8872 205.948L 97.0356 206.805L 97.6007 207.096L 98.1841 207.37L 98.7492 207.662L 99.3325 207.935L 100.627 208.227L 101.338 208.373L 101.921 208.373L 103.343 208.519L 104.783 208.519L 107.663 208.373L 109.085 208.081L 110.525 207.935L 113.387 207.224L 116.122 206.659L 118.711 206.094L 120.005 205.948L 121.153 205.82L 122.302 205.674L 123.304 205.674L 124.161 205.82L 124.599 205.948L 125.018 205.948L 125.31 206.094L 125.747 206.385L 126.312 206.805L 126.896 207.37L 127.169 208.081L 127.606 209.504L 127.898 210.78L 127.898 211.345L 128.044 211.911L 127.898 212.913L 127.752 213.916L 127.315 214.755L 126.896 215.466L 126.312 216.178L 125.601 216.743L 124.872 217.308L 124.015 217.746L 123.013 218.165L 121.007 218.876L 118.856 219.296L 116.559 219.733L 114.263 220.007L 110.088 220.59L 108.374 221.01L 107.663 221.302L 107.08 221.575L 106.515 221.867L 106.077 222.286L 105.786 222.706L 105.494 223.143L 105.494 224L 105.367 224.693L 105.494 225.405L 105.494 225.696L 105.494 225.988L 105.64 226.553L 105.932 227.119L 106.223 227.538L 106.515 227.976L 107.372 228.687L 108.374 229.252L 109.085 229.398L 109.669 229.672L 111.091 229.963L 112.385 230.091L 113.679 230.091L 114.828 230.091L 116.122 229.963L 117.416 229.672L 118.565 229.252L 119.859 228.815L 121.007 228.395L 122.302 227.83L 123.45 227.119L 125.747 225.696L 128.172 224L 130.341 221.995L 132.638 220.007L 134.643 218.019L 136.794 215.904L 138.799 213.771L 142.391 209.795L 145.69 206.239L 148.99 209.795L 152.727 213.625L 154.732 215.758L 156.883 217.892L 159.034 219.879L 161.203 221.867L 163.5 223.709L 164.631 224.566L 165.925 225.277L 167.073 226.116L 168.222 226.827L 169.37 227.392L 170.665 227.976L 171.813 228.541L 173.107 228.96L 174.402 229.252L 175.55 229.526L 176.844 229.672L 177.993 229.817L 179.287 229.817L 180.581 229.672L 181.292 229.526L 182.003 229.252L 182.587 229.106L 183.152 228.815L 183.735 228.687L 184.3 228.249L 184.738 227.976L 185.157 227.538L 185.449 227.265L 185.74 226.699L 185.886 226.262L 186.178 225.696L 186.178 224.985L 186.178 224.42L 186.178 223.563L 186.032 222.852L 186.032 222.578L 185.886 222.286L 185.595 221.867L 185.449 221.721L 185.157 221.575L 184.592 221.302L 184.009 221.01L 183.298 220.718L 181.438 220.299L 179.561 220.007L 177.264 219.733L 175.113 219.442L 172.816 219.022L 170.665 218.457L 169.516 218.165L 168.659 217.892L 167.657 217.454L 166.8 217.035L 166.071 216.469L 165.36 215.904L 164.776 215.193L 164.357 214.482L 163.92 213.625L 163.774 213.059L 163.774 212.622L 163.628 211.637L 163.774 210.506L 164.066 209.212L 164.503 207.808L 164.776 207.096L 165.36 206.385L 165.925 205.948L 166.217 205.82L 166.654 205.674L 167.511 205.528L 168.368 205.382L 169.37 205.382L 170.519 205.382L 171.667 205.674L 172.962 205.82L 175.55 206.385L 178.285 206.951L 181.147 207.516L 184.009 207.935L 186.889 208.227L 188.329 208.227L 189.623 208.081L 191.045 207.935L 192.194 207.516L 193.488 207.096L 194.636 206.385L 195.639 205.674L 196.222 205.236L 196.642 204.671L 197.662 203.541L 197.936 202.975L 198.373 202.264L 198.811 201.553L 199.084 200.696L 199.376 199.839L 199.668 198.854L 199.959 197.997L 200.087 197.14L 200.233 196.301L 200.233 195.444L 200.233 194.587L 200.233 193.73L 199.959 192.18L 199.668 190.612L 199.23 189.044L 197.936 186.071L 196.642 183.227L 195.931 181.804L 195.366 180.382L 194.782 178.832L 194.345 177.41L 194.217 176.553L 194.071 175.841L 193.925 174.146L 193.925 172.997L 194.071 172.012L 194.345 171.447L 194.491 171.155L 194.636 170.863L 194.928 170.736L 195.22 170.59L 195.639 170.444L 196.368 170.298L 197.079 170.444L 197.79 170.444L 198.665 170.736L 200.233 171.009L 201.108 171.155L 201.965 171.155L 202.821 171.155L 203.113 171.009L 203.532 170.863L 204.407 170.59L 205.118 170.298L 205.829 169.879L 206.413 169.459L 206.978 168.876L 207.269 168.31L 207.707 167.745L 207.853 167.18L 207.98 166.614L 208.126 166.049L 208.126 165.338L 208.126 164.627L 207.707 163.35L 207.561 162.639L 207.269 162.056L 206.413 160.779L 205.556 159.503L 204.407 158.372L 203.259 157.369L 201.819 156.53L 201.108 156.093L 200.379 155.819L 199.668 155.527L 198.939 155.254L 197.371 155.108L 196.222 155.108L 195.074 155.108L 193.925 155.254L 192.923 155.382L 191.92 155.673L 190.899 156.093L 190.043 156.53L 189.332 156.95L 188.475 157.515L 187.891 158.226L 187.181 158.792L 186.597 159.503L 186.032 160.214L 185.449 161.071L 184.592 162.767L 183.881 164.627L 183.298 166.614L 182.86 168.602L 182.587 170.59L 182.441 172.723L 182.441 174.711L 182.441 176.844L 182.587 178.686L 183.589 185.925L 184.009 190.338L 184.009 192.034L 184.009 193.165L 183.735 193.876L 183.589 194.587L 183.298 195.298L 182.86 196.01L 182.587 196.575L 182.149 197.012L 181.292 197.997L 180.29 198.562L 179.852 198.854L 179.287 199.128L 178.704 199.274L 178.285 199.419L 177.136 199.565L 176.553 199.565L 175.988 199.565L 175.404 199.419L 174.839 199.274L 174.402 199.128L 173.818 198.854L 173.253 198.562L 172.816 198.289L 172.396 197.851L 171.959 197.432L 171.521 197.012L 171.248 196.429L 170.519 195.444L 170.373 194.733L 170.099 194.168L 169.808 192.6L 169.516 190.904L 169.224 189.335L 169.097 187.767L 168.951 186.071L 168.951 184.503L 168.951 182.807L 169.097 181.239L 169.224 179.543L 169.37 177.975L 169.662 176.261L 170.099 174.711L 170.956 171.447L 171.394 169.879L 171.959 168.31L 173.253 165.192L 173.964 163.77L 174.693 162.202L 176.407 159.357L 177.264 158.08L 178.285 156.658L 180.29 154.105L 182.441 151.698L 183.589 150.568L 184.738 149.419L 186.032 148.434L 187.181 147.431L 188.602 146.446L 190.043 145.589L 191.483 144.878L 192.777 144.167L 194.217 143.456L 195.493 143.036L 196.933 142.599L 198.228 142.325L 199.522 142.033L 200.816 141.888L 203.387 141.76L 204.681 141.888L 205.975 142.033L 207.124 142.179L 208.418 142.471L 209.712 142.745L 210.861 143.164L 213.303 144.021L 214.598 144.586L 215.746 145.17L 218.189 146.574L 220.468 147.996L 222.91 149.565L 225.207 151.26L 227.65 153.12L 232.39 156.804L 237.129 160.652L 242.015 164.335L 244.439 166.049L 247.028 167.745L 249.617 169.167L 250.911 169.879L 252.205 170.59L 254.775 171.72L 256.216 172.286L 257.51 172.723L 258.95 173.143L 260.244 173.562L 261.666 173.854L 263.106 174.146L 264.547 174.273L 265.987 174.419L 267.409 174.419L 268.849 174.419L 269.851 174.273L 270.708 174.273L 272.586 173.854L 274.445 173.434L 276.177 172.851L 277.891 172.012L 279.622 171.155L 281.19 170.152L 281.919 169.587L 282.776 169.021L 284.216 167.891L 285.492 166.469L 286.641 165.046L 287.789 163.478L 288.81 161.928L 289.667 160.214L 289.958 159.357L 290.232 158.518L 290.815 156.658L 291.107 155.673L 291.234 154.67L 291.38 153.54L 291.526 152.555L 291.672 150.422L 291.672 148.142L 291.526 146.009L 291.234 143.875L 290.815 141.76L 290.378 139.772L 288.081 143.456L 286.932 145.298L 285.638 146.866L 284.49 148.288L 283.195 149.565L 281.919 150.841L 280.771 151.972L 279.476 152.975L 278.182 153.832L 276.888 154.543L 275.739 155.254L 274.445 155.819L 273.151 156.385L 271.857 156.658L 270.435 157.096L 269.14 157.242L 267.846 157.369L 266.552 157.515L 265.257 157.369L 262.541 157.242L 261.101 156.95L 259.807 156.658L 258.367 156.385L 257.072 155.965L 255.651 155.527L 254.356 155.108L 252.916 154.543L 251.476 153.959L 250.054 153.394L 248.76 152.829L 245.88 151.406L 243.017 149.984L 237.275 147.012L 231.533 143.875L 228.507 142.471L 225.645 141.049L 222.637 139.772L 219.757 138.478L 216.749 137.493L 213.723 136.636L 210.861 136.071L 209.275 135.779L 207.853 135.651L 206.267 135.505L 204.827 135.505L 203.259 135.505L 201.819 135.651L 200.379 135.779L 198.939 136.071L 196.222 136.782L 194.782 137.347L 193.342 137.785L 192.048 138.35L 190.772 139.061L 188.037 140.465L 185.449 142.033L 183.006 143.875L 180.581 145.735L 178.139 147.723L 175.842 149.856L 173.545 151.972L 171.394 154.105L 167.219 158.372L 163.209 162.493L 163.063 161.636L 162.771 160.652L 162.625 159.649L 162.625 158.664L 162.625 157.515L 162.771 156.385L 162.917 155.254L 163.209 153.959L 163.92 151.552L 164.631 148.999L 165.651 146.301L 166.8 143.602L 168.076 141.049L 169.516 138.478L 170.956 136.071L 172.251 133.791L 173.691 131.676L 175.113 129.688L 176.407 127.974L 177.701 126.552L 179.287 124.856L 181.147 123.288L 183.006 121.865L 185.029 120.443L 187.035 119.313L 188.037 118.747L 189.186 118.31L 191.337 117.325L 192.485 117.033L 193.634 116.614L 194.928 116.322L 196.222 116.194L 197.517 116.048L 198.939 115.903L 200.379 115.903L 201.819 115.903L 203.387 116.048L 204.973 116.194L 206.704 116.468L 208.272 116.614L 211.717 117.325L 215.309 118.036L 219.046 118.893L 226.647 120.881L 234.395 122.868L 238.278 123.853L 242.142 124.71L 245.88 125.567L 249.617 126.278L 253.354 126.844L 255.067 126.99L 256.927 127.117L 258.658 127.263L 260.244 127.263L 261.958 127.263L 263.544 127.263L 265.112 127.117L 266.698 126.844L 268.138 126.552L 269.56 126.278L 271 125.841L 272.294 125.275L 273.588 124.71L 274.737 123.999L 275.885 123.142L 276.888 122.285L 277.891 121.3L 278.893 120.17L 279.75 118.893L 280.479 117.598L 281.19 116.194L 281.773 114.48L 282.339 112.784L 282.776 111.07L 283.068 109.083L 283.341 106.949L 283.487 104.688L 283.633 102.409L 283.487 99.8556L 283.341 97.1568L 283.195 96.008L 283.068 94.7315L 282.776 93.601L 282.484 92.4704L 282.193 91.1939L 281.773 90.0451L 280.771 87.9116L 279.622 85.6504L 278.328 83.6628L 276.888 81.6752L 276.031 80.8181L 275.156 79.8334L 275.156 81.8211L 275.028 83.8087L 274.737 85.5046L 274.445 87.2187L 274.008 88.9145L 273.588 90.3369L 273.005 91.9051L 272.44 93.3092L 271.729 94.6039L 271 95.7345L 270.143 97.0109L 269.286 98.0139L 268.411 99.1444L 267.409 100.001L 266.406 100.986L 265.257 101.697L 264.109 102.554L 262.961 103.266L 261.666 103.977L 260.372 104.542L 259.096 105.107L 257.656 105.527L 254.775 106.53L 251.768 107.241L 248.76 107.66L 245.46 108.098L 242.142 108.371L 238.697 108.663L 235.27 108.663L 231.679 108.663L 228.233 108.663L 221.197 108.517L 214.16 108.226L 207.415 108.098L 204.116 108.098L 200.962 108.226L 197.936 108.371L 195.074 108.663L 192.339 109.083L 191.045 109.374L 189.897 109.648L 188.748 109.94L 187.6 110.213L 185.449 111.07L 183.443 112.073L 181.584 113.204L 179.706 114.48L 177.993 115.757L 176.407 117.325L 175.696 118.036L 174.967 118.893L 173.545 120.443L 172.105 122.157L 170.81 123.999L 169.662 125.841L 168.514 127.682L 167.511 129.542L 165.506 133.372L 163.774 137.201L 162.352 140.903L 159.618 147.431L 158.469 150.276L 157.321 152.555L 156.737 153.54L 156.172 154.397L 155.735 154.962L 155.17 155.382L 153.875 153.686L 153.875 129.105L 153.875 127.263L 154.021 125.421L 154.167 123.58L 154.586 121.865L 154.878 120.297L 155.461 118.747L 155.88 117.325L 156.61 115.903L 157.321 114.48L 158.032 113.204L 158.907 112.073L 159.763 110.797L 160.766 109.794L 161.769 108.663L 162.917 107.66L 164.066 106.676L 165.214 105.818L 166.508 104.961L 167.803 104.104L 169.097 103.411L 171.959 101.989L 173.399 101.278L 174.839 100.713L 177.993 99.5639L 181.147 98.5791L 184.446 97.5762L 187.891 96.7192L 191.337 96.008L 194.782 95.3151L 201.673 94.0204L 208.564 92.7439L 215.163 91.4675L 218.189 90.7563L 221.197 89.9175L 224.059 89.0604L 226.793 88.0575L 229.382 87.0728L 230.53 86.5075L 231.679 85.7963L 232.681 85.2128L 233.684 84.5199L 234.687 83.8087L 235.543 82.9516L 236.546 81.9487L 237.549 80.964L 238.424 79.9611L 239.135 78.8305L 239.991 77.8276L 240.575 76.697L 241.14 75.5664L 241.723 74.4358L 242.142 73.1411L 242.58 72.0106L 243.291 69.4576L 243.437 68.3271L 243.583 67.0324L 243.728 65.7559L 243.874 64.4794L 243.874 63.203L 243.728 61.9265L 243.728 60.6501L 243.583 59.3736L 243.163 56.8207L 242.434 54.2495L 241.723 51.6966L 241.286 50.4202L 240.721 49.1437L 239.572 46.7366L 238.989 45.5878L 238.278 44.3114L 236.984 42.0502L 235.398 39.9167L 233.684 37.7832L 231.952 35.7956L 230.093 34.0815L 229.09 33.0968L 228.088 32.3856L 226.082 30.8174L 224.934 30.1062L 223.913 29.395L 221.762 28.2645L 219.465 27.2798L 218.316 26.988L 217.168 26.5686L 214.871 25.9851L 213.595 25.8574L 212.447 25.7115L 211.298 25.7115L 210.15 25.7115L 208.855 25.8574L 207.707 25.9851L 206.558 26.131L 205.264 26.5686L 206.121 27.2798L 206.978 28.2645L 208.564 29.9785L 210.004 31.9662L 210.569 32.9509L 211.152 33.9538L 211.717 34.9385L 212.301 36.0691L 213.158 38.2026L 213.595 39.2055L 213.868 40.3361L 214.452 42.6155L 214.871 44.8767L 215.163 46.0255L 215.163 47.1561L 215.309 49.5631L 215.309 50.7119L 215.309 51.8425L 215.163 53.119L 215.017 54.2495L 214.598 56.5289L 214.014 58.8083L 213.303 61.0695L 212.72 62.4918L 212.009 63.9142L 211.298 65.1906L 210.569 66.613L 209.712 67.7435L 208.71 69.0382L 207.707 70.3147L 206.704 71.4453L 205.683 72.5759L 204.535 73.7247L 202.11 75.7123L 199.522 77.6999L 196.933 79.6875L 194.217 81.3834L 191.337 83.0975L 188.475 84.6475L 185.595 86.2157L 179.852 89.0604L 174.402 91.4675L 172.962 92.1786L 171.521 92.8898L 170.245 93.7468L 168.805 94.6039L 166.217 96.2998L 163.628 98.0139L 158.615 101.843L 153.584 105.673L 153.584 104.396L 153.729 103.266L 153.875 102.117L 154.021 100.986L 154.313 100.001L 154.586 98.8527L 155.024 97.868L 155.461 97.0109L 156.464 95.1692L 157.029 94.3121L 157.758 93.4551L 159.18 91.7592L 160.055 91.048L 160.766 90.191L 162.625 88.7686L 164.503 87.4922L 166.508 86.2157L 168.659 84.9393L 170.81 83.6628L 173.107 82.5322L 177.847 80.2528L 182.587 77.8276L 185.029 76.697L 187.326 75.5664L 189.623 74.2899L 191.92 72.8676L 194.071 71.5911L 196.077 70.0229L 197.936 68.4547L 199.814 66.9047L 201.381 65.1906L 202.821 63.203L 203.532 62.2183L 204.116 61.2153L 204.681 60.2307L 205.264 59.0818L 205.683 57.9513L 206.121 56.8207L 206.413 55.5442L 206.704 54.3954L 206.978 52.6995L 207.124 51.1313L 207.269 49.709L 207.415 48.159L 207.415 46.7366L 207.269 45.3143L 207.124 43.892L 206.978 42.6155L 206.704 41.3391L 206.267 40.0626L 205.975 38.7679L 205.556 37.4914L 204.973 36.3609L 204.407 35.2303L 203.824 34.0815L 203.259 32.9509L 201.819 30.8174L 200.962 29.6868L 200.087 28.6839L 199.23 27.845L 198.373 26.8421L 197.371 25.8574L 196.368 25.0004L 194.217 23.2863L 192.048 21.5904L 189.751 20.0222L 187.326 18.4722L 184.738 17.0498L 182.149 15.6275L 179.561 14.351L 176.844 13.0746L 171.248 10.6493L 165.779 8.38815L 155.17 4.12112L 150.138 2.13351L 145.69 0zM 245.023 133.08L 244.585 132.952L 244.166 132.952L 243.874 133.08L 243.583 133.226L 243.583 133.372L 243.583 133.664L 243.583 134.083L 243.874 134.375L 244.439 135.359L 245.169 136.362L 246.317 137.493L 247.465 138.769L 248.76 139.9L 250.182 141.176L 251.622 142.325L 253.062 143.456L 254.356 144.459L 255.505 145.17L 256.653 145.735L 257.364 146.155L 258.221 146.574L 259.223 146.866L 260.664 147.431L 262.395 147.869L 264.401 148.288L 266.843 148.434L 268.138 148.562L 269.56 148.562L 271 148.434L 271.729 148.434L 272.294 148.288L 273.005 148.142L 273.734 147.996L 275.028 147.577L 276.177 147.158L 277.325 146.574L 278.474 145.863L 279.476 145.298L 281.19 144.021L 281.628 143.602L 282.047 143.31L 282.776 142.745L 283.779 141.468L 284.344 140.611L 284.49 140.338L 284.781 139.9L 285.492 138.915L 286.367 137.785L 287.224 136.071L 287.661 135.086L 288.081 133.937L 288.518 132.515L 288.81 131.092L 289.083 129.397L 289.229 127.555L 289.375 125.421L 289.521 123.142L 288.938 118.455L 288.372 114.9L 288.081 113.35L 287.789 112.347L 287.789 112.201L 287.661 112.073L 287.516 112.201L 287.37 112.638L 287.224 113.204L 286.641 115.045L 285.784 117.598L 285.219 119.021L 284.49 120.589L 283.633 122.157L 282.63 123.707L 281.482 125.421L 280.042 126.99L 278.474 128.394L 277.599 129.105L 276.742 129.816L 275.739 130.381L 274.737 131.092L 273.734 131.53L 272.732 132.095L 271.729 132.515L 270.58 132.952L 269.432 133.226L 268.411 133.518L 267.263 133.791L 266.114 133.937L 263.963 134.375L 261.666 134.502L 259.515 134.648L 257.218 134.502L 255.213 134.502L 253.208 134.229L 251.203 134.083L 247.885 133.518L 245.023 133.08zM 252.916 53.2648L 251.33 52.6995L 251.057 52.5537L 251.203 52.6995L 251.33 52.8454L 251.476 53.6842L 251.768 55.9636L 251.913 57.5319L 252.059 59.3736L 252.205 61.5071L 252.205 63.6406L 252.205 65.9018L 252.059 67.1782L 252.059 68.3271L 251.768 70.7341L 251.476 72.0106L 251.33 73.1411L 251.057 74.4358L 250.619 75.5664L 250.327 76.697L 249.908 77.8276L 249.471 78.9764L 248.906 79.9611L 248.322 80.964L 247.757 81.9487L 246.317 83.8087L 245.023 85.3587L 243.728 86.781L 242.58 88.2034L 241.286 89.3339L 240.137 90.3369L 238.989 91.1939L 237.986 91.9051L 236.273 93.0357L 234.978 93.7468L 233.684 94.3121L 232.39 94.8774L 228.944 96.2998L 227.796 96.7192L 226.793 97.1568L 224.496 97.868L 223.348 98.0139L 222.199 98.2874L 221.197 98.4333L 220.194 98.5791L 219.465 98.5791L 219.337 98.7068L 219.192 98.7068L 219.192 98.8527L 219.337 98.9986L 219.902 99.418L 220.759 99.7097L 221.908 100.129L 224.934 101.132L 226.647 101.551L 228.507 101.989L 232.244 102.7L 234.121 102.974L 235.835 103.12L 237.549 103.266L 238.989 103.266L 244.312 102.974L 246.882 102.828L 248.176 102.7L 249.471 102.554L 250.765 102.409L 251.913 102.117L 253.062 101.843L 254.21 101.406L 255.359 100.986L 256.361 100.421L 256.799 100.129L 257.364 99.8556L 257.802 99.418L 258.221 98.9986L 259.096 98.2874L 259.953 97.4303L 260.809 96.5915L 261.666 95.5886L 262.395 94.6039L 263.106 93.601L 263.69 92.6163L 264.401 91.4675L 264.966 90.3369L 265.549 89.2063L 265.987 87.9116L 266.406 86.6351L 266.698 85.3587L 266.989 83.9363L 267.135 83.2252L 267.263 82.5322L 267.409 81.1099L 267.554 79.5417L 267.554 78.1193L 267.554 76.5511L 267.409 75.1288L 266.989 72.1564L 266.698 70.7341L 266.26 69.3118L 265.695 67.8894L 265.112 66.613L 264.547 65.1906L 263.69 63.7683L 262.961 62.3459L 261.958 61.0695L 260.955 59.793L 259.807 58.3707L 259.223 57.8054L 257.51 56.383L 256.361 55.5442L 255.213 54.6872L 254.065 53.976L 252.916 53.2648zM 40.6153 52.8454L 39.321 53.5566L 38.045 54.2495L 35.1647 56.1095L 33.0136 57.6595L 32.011 58.3707L 31.0084 59.793L 30.0058 61.0695L 29.0031 62.3459L 28.1281 63.7683L 27.4172 65.1906L 26.8338 66.613L 25.6854 69.3118L 24.9744 72.1564L 24.6827 73.7247L 24.5369 75.1288L 24.4093 76.5511L 24.4093 78.1193L 24.4093 79.5417L 24.5369 81.1099L 24.6827 82.5322L 24.9744 83.9363L 25.2661 85.3587L 25.5578 86.6351L 25.977 87.9116L 26.5604 89.2063L 26.9797 90.3369L 27.563 91.4675L 28.274 92.6163L 28.8573 93.601L 30.425 95.5886L 31.1542 96.5915L 32.011 97.4303L 33.7246 98.9986L 34.5996 99.8556L 35.6022 100.421L 36.1673 100.713L 36.7507 100.986L 37.7533 101.406L 38.9018 101.843L 40.0502 102.117L 42.493 102.554L 45.0633 102.828L 47.6519 102.974L 53.1025 103.266L 54.5427 103.266L 56.1286 103.12L 57.8422 102.974L 59.7198 102.7L 63.4387 101.989L 65.3163 101.551L 67.0299 101.132L 68.6158 100.567L 70.056 100.129L 71.2044 99.7097L 72.0612 99.418L 72.6263 98.9986L 72.7722 98.8527L 72.7722 98.7068L 72.4805 98.5791L 71.7695 98.5791L 70.7669 98.4333L 69.7643 98.2874L 68.6158 98.0139L 67.4674 97.868L 65.1705 97.1568L 63.0194 96.2998L 59.574 94.8774L 58.2797 94.3121L 57.988 94.1662L 57.1313 93.7468L 55.6911 93.0357L 53.9776 91.9051L 52.9749 91.1939L 51.8265 90.3369L 50.678 89.3339L 49.5296 88.2034L 48.2353 86.781L 46.941 85.3587L 45.6467 83.8087L 44.2065 81.9487L 43.6414 80.964L 43.0581 79.9611L 42.493 78.9764L 42.0555 77.8276L 41.3445 75.5664L 40.7612 73.1411L 40.3419 70.7341L 40.0502 68.3271L 39.7585 65.9018L 39.7585 63.6406L 39.7585 61.5071L 39.9044 59.3736L 40.196 55.9636L 40.4695 53.6842L 40.6153 52.8454zM 2.44275 123.142L 2.58859 125.421L 2.73443 127.555L 2.86203 129.397L 3.1537 131.092L 3.44538 132.515L 3.88288 133.937L 4.30216 135.086L 4.73967 136.071L 5.15895 136.928L 5.59646 137.785L 6.45324 138.915L 7.18242 139.9L 7.6017 140.611L 7.89337 141.049L 8.18505 141.468L 8.75016 142.033L 9.3335 142.745L 9.89862 143.31L 10.7736 144.021L 12.4872 145.298L 13.4898 145.863L 14.6383 146.574L 15.7867 147.158L 17.081 147.577L 18.3753 147.996L 19.6696 148.288L 20.9639 148.434L 22.3858 148.562L 25.1203 148.434L 26.4145 148.434L 27.563 148.288L 29.5682 147.869L 30.5709 147.577L 31.4277 147.431L 32.722 146.866L 33.7246 146.574L 34.5996 146.155L 35.4564 145.735L 36.459 145.17L 37.6075 144.459L 38.9018 143.456L 40.3419 142.325L 41.7638 141.176L 44.4982 138.769L 45.6467 137.493L 46.7951 136.362L 47.5061 135.359L 48.0894 134.375L 48.3811 134.083L 48.3811 133.664L 48.3811 133.372L 48.3811 133.226L 48.0894 133.08L 47.7977 132.952L 47.3602 132.952L 46.941 133.08L 44.0607 133.518L 40.7612 134.083L 36.7507 134.502L 34.7454 134.502L 32.4485 134.648L 30.2792 134.502L 27.9823 134.375L 25.8312 133.937L 23.5343 133.518L 22.5317 133.226L 21.3832 132.952L 20.3806 132.515L 19.2321 132.095L 18.2295 131.53L 17.2269 131.092L 16.2243 130.381L 15.2216 129.816L 13.4898 128.394L 11.9221 126.99L 11.1929 126.132L 10.482 125.421L 9.3335 123.707L 8.75016 122.996L 8.33088 122.157L 7.45587 120.589L 6.74492 119.021L 6.1798 117.598L 5.74229 116.322L 5.30478 115.045L 4.73967 113.204L 4.448 112.201L 4.30216 112.073L 4.15633 112.347L 3.88288 113.35L 3.59121 114.9L 3.00787 118.455L 2.44275 123.142zM 1.85941 172.286L 2.15108 173.854L 2.44275 175.276L 2.73443 176.407L 3.1537 177.683L 3.73705 178.96L 4.59383 180.382L 6.74492 184.503L 7.6017 185.634L 7.89337 186.217L 8.33088 186.783L 9.18767 187.64L 9.62518 188.205L 10.0445 188.478L 10.482 188.916L 11.0471 189.335L 11.9221 189.901L 12.9247 190.612L 13.9273 191.031L 15.0758 191.469L 16.0784 191.888L 17.2269 192.18L 18.2295 192.454L 20.5264 192.745L 22.6775 192.891L 23.826 193.037L 24.8286 193.037L 26.8338 192.891L 27.7088 192.745L 28.5656 192.6L 30.2792 192.034L 31.8652 191.615L 33.3053 190.904L 34.5996 190.193L 35.7481 189.627L 36.3132 189.044L 37.0423 188.478L 37.7533 187.64L 38.4642 186.783L 39.7585 184.795L 40.4695 183.646L 41.0528 182.661L 41.9096 180.674L 42.2013 179.817L 42.493 179.251L 42.493 178.686L 42.3471 178.54L 42.3471 178.394L 42.2013 178.394L 41.9096 178.394L 41.3445 178.54L 40.7612 178.96L 39.9044 179.251L 38.045 179.963L 36.8965 180.108L 35.7481 180.382L 33.0136 180.674L 31.5735 180.82L 30.0058 180.947L 28.274 180.947L 26.5604 180.947L 22.8233 180.82L 18.8128 180.528L 16.6435 180.236L 14.7841 179.817L 13.0706 179.251L 11.3387 178.54L 9.89862 177.683L 8.47672 176.844L 7.32826 175.841L 6.1798 174.984L 5.30478 174L 4.448 173.143L 3.1537 171.574L 2.44275 170.444L 2.29692 170.024L 2.00524 169.733L 1.71357 169.313L 1.71357 169.459L 1.58597 169.879L 1.71357 170.736L 1.85941 172.286zM 13.9273 199.419L 14.219 200.131L 14.7841 201.261L 15.6409 202.829L 16.2243 203.541L 16.9352 204.398L 17.6644 205.109L 18.667 205.82L 19.6696 206.513L 20.8181 207.224L 21.9665 207.662L 23.3884 208.081L 24.9744 208.373L 26.7062 208.519L 28.274 208.519L 29.1307 208.373L 29.8599 208.373L 31.1542 208.227L 32.4485 207.935L 33.4511 207.662L 34.4538 207.37L 35.1647 207.096L 36.0215 206.659L 36.6048 206.239L 37.17 205.82L 38.045 204.817L 38.9018 203.96L 39.6127 203.121L 39.9044 202.538L 40.196 201.972L 40.907 200.422L 41.4903 198.708L 41.9096 196.867L 42.2013 195.444L 42.2013 194.441L 42.0555 194.168L 41.9096 194.168L 41.6179 194.441L 41.1987 194.879L 40.907 195.444L 40.4695 196.01L 39.4669 196.867L 38.4642 197.578L 38.045 197.851L 37.6075 198.143L 36.6048 198.708L 35.7481 199L 34.4538 199.565L 33.7246 199.839L 32.722 200.131L 31.5735 200.277L 30.1516 200.55L 26.7062 200.842L 24.8286 200.842L 22.8233 200.842L 21.8207 200.696L 20.9639 200.55L 19.9431 200.422L 19.2321 200.131L 17.6644 199.565L 16.2243 199L 15.2216 198.417L 14.3466 197.851L 13.7815 197.286L 13.6357 197.578L 13.6357 197.997L 13.6357 198.708L 13.9273 199.419zM 26.5604 214.755L 27.563 216.469L 28.4198 217.454L 28.8573 218.019L 29.4224 218.603L 30.0058 219.168L 30.7167 219.588L 31.4277 220.153L 32.1568 220.445L 33.0136 220.864L 33.8704 221.01L 34.7454 221.302L 35.7481 221.302L 36.7507 221.156L 37.6075 221.156L 38.4642 220.864L 39.1934 220.718L 40.0502 220.445L 40.7612 220.007L 41.9096 219.296L 42.493 218.73L 43.0581 218.311L 43.9149 217.454L 44.7899 216.469L 45.355 215.612L 45.9383 214.482L 46.3576 213.059L 46.7951 211.491L 46.941 209.923L 47.0868 208.646L 47.0868 208.081L 47.0868 207.516L 46.941 207.224L 46.7951 207.224L 46.7951 207.096L 46.6493 207.096L 46.5035 207.096L 46.2118 207.37L 44.9357 208.938L 43.9149 209.795L 42.9122 210.634L 41.7638 211.491L 40.196 212.348L 38.6101 213.205L 36.6048 213.916L 35.4564 214.19L 34.4538 214.336L 32.5761 214.609L 30.8625 214.609L 29.4224 214.482L 28.274 214.19L 27.4172 213.916L 26.7062 213.625L 26.5604 213.625L 26.2687 213.625L 26.2687 213.771L 26.1229 213.916L 26.2687 214.336L 26.5604 214.755zM 235.835 259.924L 234.978 259.924L 232.973 260.07L 230.676 260.361L 227.65 260.635L 224.205 260.781L 220.613 260.927L 216.895 260.781L 215.017 260.781L 213.303 260.489L 206.121 259.924L 202.53 259.504L 198.939 259.067L 197.225 258.793L 195.493 258.501L 193.925 258.228L 192.485 257.79L 189.751 257.079L 188.602 256.66L 187.454 256.094L 186.743 255.948L 184.884 255.383L 182.86 254.672L 182.149 254.38L 181.712 254.107L 181.584 254.107L 181.584 254.526L 181.712 255.237L 182.149 256.24L 182.733 257.517L 183.152 258.228L 183.735 258.939L 184.3 259.65L 185.029 260.489L 185.74 261.346L 186.743 262.057L 187.6 262.914L 188.602 263.771L 190.772 265.175L 192.923 266.47L 194.928 267.601L 196.787 268.585L 198.373 269.297L 199.959 270.008L 201.673 270.445L 204.827 271.011L 208.564 271.722L 210.423 271.868L 211.863 271.995L 213.303 271.995L 214.744 271.995L 216.749 271.868L 219.046 271.722L 220.194 271.43L 221.488 271.157L 222.91 270.865L 224.205 270.445L 225.499 270.008L 226.939 269.297L 228.088 268.731L 229.236 268.02L 230.239 267.455L 231.241 266.744L 231.952 266.178L 232.681 265.467L 233.246 264.902L 233.684 264.337L 234.395 263.188L 234.978 262.477L 235.27 261.765L 235.835 259.924zM 179.561 278.961L 178.85 282.371L 178.285 284.924L 177.993 285.927L 177.701 286.638L 177.701 286.766L 177.847 286.766L 178.139 286.912L 178.85 286.766L 179.706 286.638L 182.003 286.201L 184.738 285.489L 189.751 284.067L 192.048 283.356L 193.342 282.936L 196.222 281.514L 197.79 280.803L 199.376 279.818L 200.816 279.107L 201.235 278.669L 201.673 278.25L 200.67 277.958L 199.522 277.539L 198.082 276.974L 196.514 276.116L 194.636 275.259L 192.631 273.983L 191.774 273.418L 191.191 272.998L 190.772 272.561L 187.181 269.588L 185.449 268.02L 183.881 266.598L 181.438 264.191L 180.581 263.188L 179.998 262.477L 179.141 261.346L 178.412 260.489L 177.555 259.65L 178.139 261.346L 178.558 263.334L 179.141 265.887L 179.706 268.877L 179.852 270.445L 179.998 272.141L 179.998 273.855L 179.998 275.551L 179.852 277.247L 179.561 278.961zM 111.966 262.477L 111.382 263.188L 110.525 264.191L 109.377 265.321L 108.083 266.598L 104.783 269.588L 103.07 271.157L 101.192 272.561L 100.189 273.418L 99.3325 273.983L 97.3273 275.259L 95.5955 276.116L 93.8819 276.974L 92.4418 277.539L 91.2933 277.958L 90.2907 278.25L 90.71 278.669L 91.2933 279.107L 92.5876 279.818L 94.1554 280.803L 95.7413 281.514L 98.6034 282.936L 99.8977 283.356L 102.195 284.067L 107.372 285.489L 109.942 286.201L 111.236 286.492L 112.239 286.638L 113.114 286.766L 113.825 286.912L 114.117 286.912L 114.263 286.766L 114.263 286.638L 113.971 285.927L 113.679 284.924L 113.114 282.371L 112.385 278.961L 112.111 277.247L 111.966 275.551L 111.966 273.855L 111.966 272.141L 112.111 270.445L 112.239 268.877L 112.822 265.887L 113.387 263.334L 113.971 261.346L 114.263 260.07L 114.536 259.65L 113.679 260.489L 112.822 261.346L 112.385 261.911L 111.966 262.477zM 55.9828 259.924L 56.6937 261.765L 56.9854 262.477L 57.5505 263.188L 57.8422 263.771L 58.2797 264.337L 58.699 264.902L 59.2823 265.467L 59.9933 266.178L 60.7225 266.744L 61.7251 267.455L 62.7277 268.02L 63.8762 268.731L 65.0246 269.297L 66.4648 270.008L 67.759 270.445L 70.4753 271.157L 71.7695 271.43L 72.918 271.722L 74.2123 271.868L 75.2149 271.868L 77.2202 271.995L 78.8061 271.995L 80.1004 271.995L 81.5223 271.868L 83.4 271.722L 87.137 271.011L 90.4365 270.445L 91.4392 270.154L 92.0043 270.008L 93.7361 269.297L 97.0356 267.601L 99.0409 266.47L 100.189 265.887L 101.192 265.175L 103.343 263.771L 104.346 262.914L 105.367 262.057L 106.934 260.489L 107.663 259.65L 108.229 258.939L 109.231 257.517L 109.815 256.24L 110.234 255.237L 110.38 254.526L 110.38 254.253L 110.38 254.107L 110.234 254.107L 109.815 254.38L 109.085 254.672L 107.08 255.383L 104.491 256.094L 103.343 256.66L 102.778 256.805L 102.195 257.079L 100.9 257.517L 99.4784 257.79L 98.0383 258.228L 96.4523 258.501L 93.0069 259.067L 89.5615 259.504L 85.8427 259.924L 78.6603 260.489L 76.9285 260.781L 75.0691 260.781L 73.2097 260.927L 71.332 260.927L 67.759 260.781L 64.3137 260.635L 61.4334 260.361L 58.9907 260.07L 56.9854 259.924L 55.9828 259.924z"
       id="path2828" />
  </g>
  <g
     id="g2830" />
</svg>
